<svg xmlns="http://www.w3.org/2000/svg" xmlns:xlink="http://www.w3.org/1999/xlink" xmlns:krita="http://krita.org/namespaces/svg/krita" xmlns:sodipodi="http://sodipodi.sourceforge.net/DTD/sodipodi-0.dtd" width="30" height="30" viewBox="0 0 1536 1536">  <defs>    <filter id="shadow" x="-50%" y="-50%" width="200%" height="200%">      <feGaussianBlur stdDeviation="30" result="blur"/>      <feOffset dy="20" result="offsetblur"/>      <feMerge>        <feMergeNode in="offsetblur"/>        <feMergeNode in="SourceGraphic"/>      </feMerge>    </filter>    <filter id="blur-edge" x="-50%" y="-50%" width="200%" height="200%">      <feGaussianBlur stdDeviation="20"/>    </filter>    <filter id="glow" x="-100%" y="-100%" width="400%" height="400%">      <feGaussianBlur stdDeviation="40" result="coloredBlur"/>      <feMerge>        <feMergeNode in="coloredBlur"/>        <feMergeNode in="SourceGraphic"/>        <feMergeNode in="coloredBlur"/>        <feMergeNode in="SourceGraphic"/>      </feMerge>    </filter>  </defs>  <!-- 椭圆阴影 -->  <ellipse cx="768" cy="1500" rx="400" ry="60" fill="#000" opacity="0.5" filter="url(#blur-edge)"/>  <path id="0" fill="#ffffff" stroke="#000000" stroke-width="25" stroke-linecap="square" stroke-linejoin="miter" stroke-miterlimit="2" d="M809.25 1449L1435.5 571.5C1454.5 539.5 1445.37 511.875 1408.12 488.625C1370.87 465.375 1167.17 336.917 797 103.25C751 76.9167 712.583 81.8333 681.75 118C650.917 154.167 577 240.667 460 377.5C447.333 393.167 425.833 408.833 395.5 424.5C365.167 440.167 262.333 492.5 87 581.5C61.6667 597.5 58.8333 618.5 78.5 644.5C108 683.5 429 1068 534 1225.5C604 1330.5 657 1405.33 693 1450C740.333 1490.67 779.083 1490.33 809.25 1449" sodipodi:nodetypes="cccccccccccc"/>  <path id="1" fill="#a185e5" stroke="#000000" stroke-width="25" stroke-linecap="square" stroke-linejoin="miter" stroke-miterlimit="2" d="M1094.5 601.375L685.75 527C679.083 526.417 674.083 528.292 670.75 532.625C667.417 536.958 579.458 662.104 406.875 908.062C402.437 913.812 402.187 919.281 406.125 924.469C410.062 929.656 428.5 954.5 461.437 999C468.312 1008.25 476.812 1015.06 486.937 1019.44C497.062 1023.81 557.625 1053.12 668.625 1107.37C671.625 1109.12 677.125 1109.62 685.125 1108.87C693.125 1108.12 796.917 1092.33 996.5 1061.5C1002.17 1060.67 1006.17 1058.58 1008.5 1055.25C1010.83 1051.92 1044.96 1003.15 1110.87 908.937C1112.92 906.198 1113.95 904.125 1113.98 902.719C1114.02 901.312 1111.19 804.615 1105.5 612.625C1104.25 606.292 1100.58 602.542 1094.5 601.375" sodipodi:nodetypes="ccccccccccccccc"/>  <path id="2" fill="none" stroke="#03e7f7" stroke-width="25" stroke-linecap="square" stroke-linejoin="miter" stroke-miterlimit="2" filter="url(#glow)" d="M739.875 620.25L987.75 670.125C999.5 671.875 1006 677.75 1007.25 687.75C1008.5 697.75 1012.87 734.125 1020.37 796.875C1023.12 808.375 1019.5 818.25 1009.5 826.5C999.5 834.75 931.417 892.583 805.25 1000C794.917 1005 784.583 1005.92 774.25 1002.75C763.917 999.583 684.5 975.333 536 930C528.333 927.833 526.75 922.583 531.25 914.25C535.75 905.917 596.5 812.167 713.5 633C719.5 622 728.292 617.75 739.875 620.25" sodipodi:nodetypes="ccccccccccc"/>  <path id="11" fill="none" stroke="#9a79e2" stroke-width="1" stroke-linecap="square" stroke-linejoin="miter" stroke-miterlimit="2" d="M337 538L337 539L335 539L335 540L333 540L333 541L331 541L331 542L329 542L329 543L327 543L327 544L325 544L325 545L323 545L323 546L321 546L321 547L319 547L319 548L317 548L317 549L315 549L315 550L313 550L313 551L311 551L311 552L309 552L309 553L308 553L308 554L306 554L306 555L304 555L304 556L302 556L302 557L300 557L300 558L298 558L298 559L296 559L296 560L294 560L294 561L292 561L292 562L290 562L290 563L288 563L288 564L286 564L286 565L284 565L284 566L282 566L282 567L280 567L280 568L278 568L278 569L276 569L276 570L274 570L274 571L272 571L272 572L270 572L270 573L268 573L268 574L266 574L266 575L264 575L264 576L262 576L262 577L260 577L260 578L258 578L258 579L256 579L256 580L254 580L254 581L252 581L252 582L250 582L250 583L248 583L248 584L246 584L246 585L244 585L244 586L242 586L242 587L240 587L240 588L238 588L238 589L236 589L236 590L234 590L234 591L232 591L232 592L230 592L230 593L229 593L229 594L227 594L227 595L225 595L225 596L223 596L223 597L221 597L221 598L219 598L219 599L217 599L217 600L215 600L215 601L213 601L213 602L211 602L211 603L209 603L209 604L207 604L207 605L205 605L205 606L203 606L203 607L201 607L201 608L199 608L199 609L197 609L197 610L195 610L195 611L193 611L193 612L191 612L191 613L189 613L189 614L187 614L187 615L185 615L185 616L183 616L183 617L181 617L181 618L179 618L179 619L177 619L177 620L175 620L175 621L173 621L173 622L171 622L171 623L169 623L169 624L167 624L167 625L166 625L166 626L165 626L165 627L166 627L166 628L167 628L167 630L168 630L168 631L169 631L169 632L170 632L170 633L171 633L171 634L172 634L172 636L173 636L173 637L174 637L174 638L175 638L175 639L176 639L176 640L177 640L177 641L178 641L178 643L179 643L179 644L180 644L180 645L181 645L181 646L182 646L182 647L183 647L183 649L184 649L184 650L185 650L185 651L186 651L186 652L187 652L187 653L188 653L188 654L189 654L189 656L190 656L190 657L191 657L191 658L192 658L192 659L193 659L193 660L194 660L194 661L195 661L195 663L196 663L196 664L197 664L197 665L198 665L198 666L199 666L199 667L200 667L200 669L201 669L201 670L202 670L202 671L203 671L203 672L204 672L204 673L205 673L205 674L206 674L206 676L207 676L207 677L208 677L208 678L209 678L209 679L210 679L210 680L211 680L211 682L212 682L212 683L213 683L213 684L214 684L214 685L215 685L215 686L216 686L216 687L217 687L217 689L218 689L218 690L219 690L219 691L220 691L220 692L221 692L221 693L222 693L222 695L223 695L223 696L224 696L224 697L225 697L225 698L226 698L226 699L227 699L227 700L228 700L228 702L229 702L229 703L230 703L230 704L231 704L231 705L232 705L232 706L233 706L233 708L234 708L234 709L235 709L235 710L236 710L236 711L237 711L237 712L238 712L238 713L239 713L239 715L240 715L240 716L241 716L241 717L242 717L242 718L243 718L243 719L244 719L244 720L245 720L245 722L246 722L246 723L247 723L247 724L248 724L248 725L249 725L249 726L250 726L250 727L251 727L251 729L252 729L252 730L253 730L253 731L254 731L254 732L255 732L255 733L256 733L256 734L257 734L257 736L258 736L258 737L259 737L259 738L260 738L260 739L261 739L261 740L262 740L262 741L263 741L263 742L264 742L264 744L265 744L265 745L266 745L266 746L267 746L267 747L268 747L268 748L269 748L269 749L270 749L270 748L271 748L271 745L272 745L272 742L273 742L273 739L274 739L274 736L275 736L275 733L276 733L276 730L277 730L277 727L278 727L278 724L279 724L279 721L280 721L280 718L281 718L281 715L282 715L282 712L283 712L283 709L284 709L284 706L285 706L285 703L286 703L286 700L287 700L287 697L288 697L288 694L289 694L289 691L290 691L290 688L291 688L291 685L292 685L292 682L293 682L293 679L294 679L294 676L295 676L295 673L296 673L296 670L297 670L297 667L298 667L298 664L299 664L299 661L300 661L300 658L301 658L301 655L302 655L302 652L303 652L303 649L304 649L304 646L305 646L305 643L306 643L306 640L307 640L307 637L308 637L308 634L309 634L309 631L310 631L310 628L311 628L311 625L312 625L312 622L313 622L313 619L314 619L314 616L315 616L315 613L316 613L316 610L317 610L317 607L318 607L318 604L319 604L319 601L320 601L320 598L321 598L321 595L322 595L322 592L323 592L323 589L324 589L324 586L325 586L325 583L326 583L326 580L327 580L327 577L328 577L328 574L329 574L329 571L330 571L330 568L331 568L331 565L332 565L332 562L333 562L333 559L334 559L334 556L335 556L335 553L336 553L336 550L337 550L337 547L338 547L338 544L339 544L339 541L340 541L340 538L337 538" sodipodi:nodetypes="ccccccccccccccccccccccccccccccccccccccccccccccccccccccccccccccccccccccccccccccccccccccccccccccccccccccccccccccccccccccccccccccccccccccccccccccccccccccccccccccccccccccccccccccccccccccccccccccccccccccccccccccccccccccccccccccccccccccccccccccccccccccccccccccccccccccccccccccccccccccccccccccccccccccccccccccccccccccccccccccccccccccccccccccccccccccccccccccccccccccccccccccccccccccccccccccccccccccccccccccccccccccccccccccccccccccccccccccccccccccccccccccccccccccccccccccccccccccccccccccccccccccccccccccccccccccccccccccccccccccccccccccccc"/>  <path id="12" fill="none" stroke="#9a79e2" stroke-width="1" stroke-linecap="round" stroke-linejoin="miter" stroke-miterlimit="2" d="M337 538L337 539L335 539L335 540L333 540L333 541L331 541L331 542L329 542L329 543L327 543L327 544L325 544L325 545L323 545L323 546L321 546L321 547L319 547L319 548L317 548L317 549L315 549L315 550L313 550L313 551L311 551L311 552L309 552L309 553L308 553L308 554L306 554L306 555L304 555L304 556L302 556L302 557L300 557L300 558L298 558L298 559L296 559L296 560L294 560L294 561L292 561L292 562L290 562L290 563L288 563L288 564L286 564L286 565L284 565L284 566L282 566L282 567L280 567L280 568L278 568L278 569L276 569L276 570L274 570L274 571L272 571L272 572L270 572L270 573L268 573L268 574L266 574L266 575L264 575L264 576L262 576L262 577L260 577L260 578L258 578L258 579L256 579L256 580L254 580L254 581L252 581L252 582L250 582L250 583L248 583L248 584L246 584L246 585L244 585L244 586L242 586L242 587L240 587L240 588L238 588L238 589L236 589L236 590L234 590L234 591L232 591L232 592L230 592L230 593L229 593L229 594L227 594L227 595L225 595L225 596L223 596L223 597L221 597L221 598L219 598L219 599L217 599L217 600L215 600L215 601L213 601L213 602L211 602L211 603L209 603L209 604L207 604L207 605L205 605L205 606L203 606L203 607L201 607L201 608L199 608L199 609L197 609L197 610L195 610L195 611L193 611L193 612L191 612L191 613L189 613L189 614L187 614L187 615L185 615L185 616L183 616L183 617L181 617L181 618L179 618L179 619L177 619L177 620L175 620L175 621L173 621L173 622L171 622L171 623L169 623L169 624L167 624L167 625L166 625L166 626L165 626L165 627L166 627L166 628L167 628L167 630L168 630L168 631L169 631L169 632L170 632L170 633L171 633L171 634L172 634L172 636L173 636L173 637L174 637L174 638L175 638L175 639L176 639L176 640L177 640L177 641L178 641L178 643L179 643L179 644L180 644L180 645L181 645L181 646L182 646L182 647L183 647L183 649L184 649L184 650L185 650L185 651L186 651L186 652L187 652L187 653L188 653L188 654L189 654L189 656L190 656L190 657L191 657L191 658L192 658L192 659L193 659L193 660L194 660L194 661L195 661L195 663L196 663L196 664L197 664L197 665L198 665L198 666L199 666L199 667L200 667L200 669L201 669L201 670L202 670L202 671L203 671L203 672L204 672L204 673L205 673L205 674L206 674L206 676L207 676L207 677L208 677L208 678L209 678L209 679L210 679L210 680L211 680L211 682L212 682L212 683L213 683L213 684L214 684L214 685L215 685L215 686L216 686L216 687L217 687L217 689L218 689L218 690L219 690L219 691L220 691L220 692L221 692L221 693L222 693L222 695L223 695L223 696L224 696L224 697L225 697L225 698L226 698L226 699L227 699L227 700L228 700L228 702L229 702L229 703L230 703L230 704L231 704L231 705L232 705L232 706L233 706L233 708L234 708L234 709L235 709L235 710L236 710L236 711L237 711L237 712L238 712L238 713L239 713L239 715L240 715L240 716L241 716L241 717L242 717L242 718L243 718L243 719L244 719L244 720L245 720L245 722L246 722L246 723L247 723L247 724L248 724L248 725L249 725L249 726L250 726L250 727L251 727L251 729L252 729L252 730L253 730L253 731L254 731L254 732L255 732L255 733L256 733L256 734L257 734L257 736L258 736L258 737L259 737L259 738L260 738L260 739L261 739L261 740L262 740L262 741L263 741L263 742L264 742L264 744L265 744L265 745L266 745L266 746L267 746L267 747L268 747L268 748L269 748L269 749L270 749L270 748L271 748L271 745L272 745L272 742L273 742L273 739L274 739L274 736L275 736L275 733L276 733L276 730L277 730L277 727L278 727L278 724L279 724L279 721L280 721L280 718L281 718L281 715L282 715L282 712L283 712L283 709L284 709L284 706L285 706L285 703L286 703L286 700L287 700L287 697L288 697L288 694L289 694L289 691L290 691L290 688L291 688L291 685L292 685L292 682L293 682L293 679L294 679L294 676L295 676L295 673L296 673L296 670L297 670L297 667L298 667L298 664L299 664L299 661L300 661L300 658L301 658L301 655L302 655L302 652L303 652L303 649L304 649L304 646L305 646L305 643L306 643L306 640L307 640L307 637L308 637L308 634L309 634L309 631L310 631L310 628L311 628L311 625L312 625L312 622L313 622L313 619L314 619L314 616L315 616L315 613L316 613L316 610L317 610L317 607L318 607L318 604L319 604L319 601L320 601L320 598L321 598L321 595L322 595L322 592L323 592L323 589L324 589L324 586L325 586L325 583L326 583L326 580L327 580L327 577L328 577L328 574L329 574L329 571L330 571L330 568L331 568L331 565L332 565L332 562L333 562L333 559L334 559L334 556L335 556L335 553L336 553L336 550L337 550L337 547L338 547L338 544L339 544L339 541L340 541L340 538L337 538" sodipodi:nodetypes="ccccccccccccccccccccccccccccccccccccccccccccccccccccccccccccccccccccccccccccccccccccccccccccccccccccccccccccccccccccccccccccccccccccccccccccccccccccccccccccccccccccccccccccccccccccccccccccccccccccccccccccccccccccccccccccccccccccccccccccccccccccccccccccccccccccccccccccccccccccccccccccccccccccccccccccccccccccccccccccccccccccccccccccccccccccccccccccccccccccccccccccccccccccccccccccccccccccccccccccccccccccccccccccccccccccccccccccccccccccccccccccccccccccccccccccccccccccccccccccccccccccccccccccccccccccccccccccccccccccccccccccccccc"/>  <path id="14" fill="#a185e5" stroke="#000000" stroke-width="25" stroke-linecap="round" stroke-linejoin="miter" stroke-miterlimit="2" d="M738.125 155.5L509.437 420.187C504.437 425.812 505.937 429.5 513.937 431.25C521.937 433 714.583 468.792 1091.87 538.625C1098.96 540.375 1102.5 538.875 1102.5 534.125C1102.5 529.375 1101.19 478.396 1098.56 381.187C1098.44 375.937 1096.94 372.375 1094.06 370.5C1091.19 368.625 977.583 295.958 753.25 152.5C747.167 149.917 742.125 150.917 738.125 155.5" sodipodi:nodetypes="ccccccccc"/>  <path id="15" fill="#a185e5" stroke="#000000" stroke-width="25" stroke-linecap="round" stroke-linejoin="miter" stroke-miterlimit="2" d="M453.469 484.125L606.562 512.937C612.406 514.292 612.891 518.156 608.016 524.531C603.141 530.906 524.427 643.479 371.875 862.25C368.375 867.25 364.292 867.042 359.625 861.625C354.958 856.208 347.708 846.458 337.875 832.375C334.208 827.792 333.042 822.958 334.375 817.875C335.708 812.792 371.062 704.042 440.437 491.625C443.062 485.625 447.406 483.125 453.469 484.125" sodipodi:nodetypes="ccccccccc"/>  <path id="16" fill="#a185e5" stroke="#000000" stroke-width="25" stroke-linecap="round" stroke-linejoin="miter" stroke-miterlimit="2" d="M941.25 1127.34L666.75 1168.78C663.437 1169.28 660.344 1168.75 657.469 1167.19C654.594 1165.62 617.896 1147.77 547.375 1113.62C533.792 1108.29 531.292 1111.46 539.875 1123.12C548.458 1134.79 615.583 1227.79 741.25 1402.12C746.417 1408.12 750.917 1408.58 754.75 1403.5C758.583 1398.42 823.156 1308.96 948.469 1135.12C952.469 1128.66 950.062 1126.06 941.25 1127.34" sodipodi:nodetypes="ccccccccc"/>  <path id="17" fill="#a185e5" stroke="#000000" stroke-width="25" stroke-linecap="round" stroke-linejoin="miter" stroke-miterlimit="2" d="M1167.5 429.5L1175 801C1176 811.667 1179.17 813 1184.5 805C1189.83 797 1251.17 713.167 1368.5 553.5C1373.83 548.167 1373.17 543.333 1366.5 539C1359.83 534.667 1297.33 495.5 1179 421.5C1171.33 417.833 1167.5 420.5 1167.5 429.5" sodipodi:nodetypes="ccccccc"/>  <path id="18" fill="#a185e5" stroke="#000000" stroke-width="25" stroke-linecap="round" stroke-linejoin="miter" stroke-miterlimit="2" d="M151.219 618.656L351.75 517.125C358.5 513.958 360.667 516.375 358.25 524.375C355.833 532.375 329.583 611.208 279.5 760.875C276.417 769.958 272.167 771.625 266.75 765.875C261.333 760.125 223.057 715.193 151.922 631.078C146.766 625.203 146.531 621.062 151.219 618.656" sodipodi:nodetypes="ccccccc"/>  <path id="21" stroke="#000000" stroke-width="20" stroke-linecap="round" d="M820,200 L740,300" sodipodi:nodetypes="ccccccc"/>  <path id="22a" fill="none" stroke="#000000" stroke-width="20" stroke-linecap="round" d="M900,490 L1020,320" sodipodi:nodetypes="ccccccc"/>  <path id="22b" fill="none" stroke="#000000" stroke-width="20" stroke-linecap="round" d="M400,660 L500,680" sodipodi:nodetypes="ccccccc"/></svg>    